# xmcd CD database file
#
# Track frame offsets:
#	150
#	60017
#	98988
#	144948
#	175734
#	209878
#	270197
#
# Disc length: 3923 seconds
#
# Revision: 0
# Processed by: cddbd v1.5.1PL0 Copyright (c) Steve Scherf et al.
# Submitted via: CDex 1.51
#
DISCID=580f5107
DTITLE=Emmergency! - Loveman Prays for Psychical Sing
DYEAR=1900
DGENRE=Jazz
TTITLE0=Sing Sing Sing
TTITLE1=Better Git Hit in Your Soul
TTITLE2=I Say a Little Prayer
TTITLE3=The Fireworks in Toshimaen
TTITLE4=Run and Run
TTITLE5=Fables of Faubus
TTITLE6=Good Night
EXTD=
EXTT0=
EXTT1=
EXTT2=
EXTT3=
EXTT4=
EXTT5=
EXTT6=
PLAYORDER=
